<?xml version="1.0"?>
<svg xmlns="http://www.w3.org/2000/svg" xmlns:xlink="http://www.w3.org/1999/xlink" xmlns:svgjs="http://svgjs.com/svgjs" version="1.1" width="512" height="512" x="0" y="0" viewBox="0 0 512 512" style="enable-background:new 0 0 512 512" xml:space="preserve" class=""><g><g xmlns="http://www.w3.org/2000/svg"><g><g><g><g><g><g><circle cx="256" cy="256" fill="#81c784" r="256" data-original="#7584f2" style="" class=""/></g></g></g></g></g></g><path d="m511.685 268.813-176.062-173.598-41.856 71.58-78.571-78.571-36.994 95.344 111.208 111.208-24.444 19.685-121.52-121.52-43.84 87.85 92.414 92.414-50.43 40.611 97.642 97.642c5.543.36 11.134.542 16.768.542 137.088 0 249.009-107.755 255.685-243.187z" fill="#377b3b" data-original="#4855b7" style="" class=""/><g><path d="m376.054 388.901c0 66.304-53.75 0-120.054 0s-120.054 66.304-120.054 0 29.613-166.526 120.054-166.526c96.998 0 120.054 100.222 120.054 166.526z" fill="#ffffff" data-original="#ffce00" style="" class=""/></g><g><path d="m256.12 222.377v166.526c66.248.081 119.933 66.262 119.933-.002.001-66.276-23.037-166.44-119.933-166.524z" fill="#e6e6e6" data-original="#fdba12" style="" class=""/></g><g><g><ellipse cx="313.952" cy="139.585" fill="#e6e6e6" rx="35.768" ry="55.767" data-original="#fdba12" style="" class=""/></g><g><ellipse cx="198.048" cy="137.175" fill="#ffffff" rx="35.768" ry="55.767" data-original="#ffce00" style="" class=""/></g></g><g><g><ellipse cx="392.2" cy="234.767" fill="#e6e6e6" rx="35.768" ry="55.767" data-original="#fdba12" style="" class=""/></g><g><ellipse cx="119.8" cy="234.767" fill="#ffffff" rx="35.768" ry="55.767" data-original="#ffce00" style="" class=""/></g></g></g></g></svg>
